<?xml version="1.0" encoding="UTF-8" standalone="no"?>
<!-- Generator: Adobe Illustrator 16.0.0, SVG Export Plug-In . SVG Version: 6.00 Build 0)  -->

<svg
   xmlns:dc="http://purl.org/dc/elements/1.1/"
   xmlns:cc="http://creativecommons.org/ns#"
   xmlns:rdf="http://www.w3.org/1999/02/22-rdf-syntax-ns#"
   xmlns:svg="http://www.w3.org/2000/svg"
   xmlns="http://www.w3.org/2000/svg"
   xmlns:sodipodi="http://sodipodi.sourceforge.net/DTD/sodipodi-0.dtd"
   xmlns:inkscape="http://www.inkscape.org/namespaces/inkscape"
   version="1.1"
   id="Layer_1"
   x="0px"
   y="0px"
   width="416px"
   height="286px"
   viewBox="0 0 416 286"
   enable-background="new 0 0 416 286"
   xml:space="preserve"
   inkscape:version="0.48.4 r9939"
   sodipodi:docname="p-logo.svg"><metadata
     id="metadata309"><rdf:RDF><cc:Work
         rdf:about=""><dc:format>image/svg+xml</dc:format><dc:type
           rdf:resource="http://purl.org/dc/dcmitype/StillImage" /></cc:Work></rdf:RDF></metadata><defs
     id="defs307" /><sodipodi:namedview
     pagecolor="#ffffff"
     bordercolor="#666666"
     borderopacity="1"
     objecttolerance="10"
     gridtolerance="10"
     guidetolerance="10"
     inkscape:pageopacity="0"
     inkscape:pageshadow="2"
     inkscape:window-width="1366"
     inkscape:window-height="719"
     id="namedview305"
     showgrid="false"
     inkscape:zoom="0.75961538"
     inkscape:cx="-19.088608"
     inkscape:cy="143"
     inkscape:window-x="0"
     inkscape:window-y="25"
     inkscape:window-maximized="1"
     inkscape:current-layer="g5" /><g
     id="g3"><g
       id="g5"><polygon
         fill="#303F9F"
         points="84.157,143 42.878,214.5 84.157,286 125.436,214.5   "
         id="polygon7" /><polygon
         fill="#3F51B5"
         points="331.842,0 290.561,71.5 331.842,143 373.121,71.5   "
         id="polygon9"
         style="fill:#ff0000;fill-opacity:0.45273632" /><polygon
         fill="#7986CB"
         points="373.121,71.5 249.278,286 331.842,286 414.4,143   "
         id="polygon11"
         style="fill:#ff5555;fill-opacity:0.74129355" /><polygon
         fill="#536DFE"
         points="84.157,0 1.596,143 42.878,214.5 166.721,0   "
         id="polygon15" /><polygon
         fill="#FFFFFF"
         fill-opacity="0.2"
         points="249.278,0 290.561,71.5 331.842,0   "
         id="polygon17" /><polygon
         fill="#FFFFFF"
         fill-opacity="0"
         points="208,71.5 249.278,143 290.561,71.5   "
         id="polygon21" /><polygon
         fill-opacity="0.1"
         points="166.721,143 208,71.5 249.278,143   "
         id="polygon23"
         style="fill:#ffff00;fill-opacity:0.58706468" /><polygon
         fill-opacity="0.2"
         points="166.721,143 208,214.5 249.278,143   "
         id="polygon25"
         style="fill:#ffff00" /><polygon
         fill-opacity="0.5"
         points="84.157,286 125.438,214.5 166.721,286   "
         id="polygon31"
         style="fill:#000080" /><polygon
         fill="#FFFFFF"
         fill-opacity="0.2"
         points="84.157,0 125.438,71.5 166.721,0   "
         id="polygon33" /><polygon
         fill="#FFFFFF"
         fill-opacity="0.1"
         points="42.878,71.5 84.157,0 125.438,71.5   "
         id="polygon35" /><polygon
         fill="#FFFFFF"
         fill-opacity="0"
         points="42.878,71.5 84.157,143 125.438,71.5   "
         id="polygon37" /><polygon
         fill-opacity="0.1"
         points="1.598,143 42.878,71.5 84.157,143   "
         id="polygon39" /><polygon
         fill-opacity="0.2"
         points="1.598,143 42.878,214.5 84.157,143   "
         id="polygon41" /><polygon
         fill="#FFFFFF"
         fill-opacity="0"
         points="125.438,214.5 84.157,143 42.878,214.5   "
         id="polygon43" /><polygon
         fill-opacity="0.2"
         points="125.438,214.5 84.157,286 42.878,214.5   "
         id="polygon45" /><polygon
         fill-opacity="0.2"
         points="373.121,71.5 331.842,0 290.561,71.5   "
         id="polygon47"
         style="fill:#ff0000;fill-opacity:0.71144277" /><polygon
         fill="#FFFFFF"
         fill-opacity="0"
         points="373.121,71.5 331.842,143 290.561,71.5   "
         id="polygon49" /><g
         id="g51"><polygon
           fill="#FFFFFF"
           fill-opacity="0.2"
           points="331.842,143 373.121,71.5 414.4,143    "
           id="polygon53"
           style="fill:#ff0000;fill-opacity:0.61194032" /><polygon
           fill="#FFFFFF"
           fill-opacity="0.1"
           points="331.842,143 373.121,214.5 414.4,143    "
           id="polygon55"
           style="fill:#ff0000;fill-opacity:0.93532336" /><polygon
           fill="#FFFFFF"
           fill-opacity="0"
           points="290.561,214.5 331.842,143 373.121,214.5    "
           id="polygon57" /><polygon
           fill-opacity="0.1"
           points="290.561,214.5 331.842,286 373.121,214.5    "
           id="polygon59" /><polygon
           fill-opacity="0.2"
           points="249.278,286 290.561,214.5 331.842,286    "
           id="polygon61" /></g><polygon
         id="polygon3301"
         points="125.438,71.5 166.721,0 84.157,0 "
         transform="translate(166,0)"
         style="fill:#ff005d;fill-opacity:0.60696518" /></g><rect
       y="-65"
       fill="none"
       width="416"
       height="416"
       id="rect63" /></g><g
     display="none"
     id="g65"><g
       display="inline"
       id="g67"><polygon
         fill="#303F9F"
         points="84.157,143 42.878,214.5 84.157,286 166.721,286   "
         id="polygon69" /><polygon
         fill="#3F51B5"
         points="331.842,0 249.278,0 331.842,143 373.121,71.5   "
         id="polygon71" /><polygon
         fill="#7986CB"
         points="373.121,71.5 249.278,286 331.842,286 414.4,143   "
         id="polygon73" /><polygon
         fill="#536DFE"
         points="84.157,0 1.596,143 42.878,214.5 166.721,0   "
         id="polygon75" /><polygon
         fill-opacity="0.5"
         points="249.278,0 290.561,71.5 331.842,0   "
         id="polygon77" /><polygon
         fill-opacity="0.5"
         points="84.157,286 125.438,214.5 166.721,286   "
         id="polygon79" /><polygon
         fill="#FFFFFF"
         fill-opacity="0.2"
         points="84.157,0 125.438,71.5 166.721,0   "
         id="polygon81" /><polygon
         fill="#FFFFFF"
         fill-opacity="0.1"
         points="42.878,71.5 84.157,0 125.438,71.5   "
         id="polygon83" /><polygon
         fill="#FFFFFF"
         fill-opacity="0"
         points="42.878,71.5 84.157,143 125.438,71.5   "
         id="polygon85" /><polygon
         fill-opacity="0.1"
         points="1.598,143 42.878,71.5 84.157,143   "
         id="polygon87" /><polygon
         fill-opacity="0.2"
         points="1.598,143 42.878,214.5 84.157,143   "
         id="polygon89" /><polygon
         fill="#FFFFFF"
         fill-opacity="0"
         points="125.438,214.5 84.157,143 42.878,214.5   "
         id="polygon91" /><polygon
         fill="#FFFFFF"
         fill-opacity="0"
         points="373.121,71.5 331.842,143 290.561,71.5   "
         id="polygon93" /><g
         id="g95"><polygon
           fill="#FFFFFF"
           fill-opacity="0.2"
           points="331.842,143 373.121,71.5 414.4,143    "
           id="polygon97" /><polygon
           fill="#FFFFFF"
           fill-opacity="0.1"
           points="331.842,143 373.121,214.5 414.4,143    "
           id="polygon99" /><polygon
           fill="#FFFFFF"
           fill-opacity="0"
           points="290.561,214.5 331.842,143 373.121,214.5    "
           id="polygon101" /><polygon
           fill-opacity="0.1"
           points="290.561,214.5 331.842,286 373.121,214.5    "
           id="polygon103" /><polygon
           fill-opacity="0.2"
           points="249.278,286 290.561,214.5 331.842,286    "
           id="polygon105" /></g><polygon
         fill-opacity="0.2"
         points="125.438,214.5 84.157,286 42.878,214.5   "
         id="polygon107" /><polygon
         fill-opacity="0.2"
         points="373.121,71.5 331.842,0 290.561,71.5   "
         id="polygon109" /></g><rect
       y="-65"
       display="inline"
       fill="none"
       width="416"
       height="416"
       id="rect111" /></g><g
     display="none"
     id="g113"><g
       display="inline"
       id="g115"><polygon
         fill="#FF4081"
         points="249.279,0 84.157,286 166.721,286 331.843,0   "
         id="polygon117" /><polygon
         fill="#FFFFFF"
         fill-opacity="0.2"
         points="249.279,0 290.558,71.5 331.843,0   "
         id="polygon119" /><polygon
         fill="#FFFFFF"
         fill-opacity="0.1"
         points="208,71.5 249.279,0 290.558,71.5   "
         id="polygon121" /><polygon
         fill="#FFFFFF"
         fill-opacity="0"
         points="208,71.5 249.279,143 290.558,71.5   "
         id="polygon123" /><polygon
         fill-opacity="0.2"
         points="166.721,143 208,214.5 249.279,143   "
         id="polygon125" /><polygon
         fill-opacity="0.3"
         points="125.439,214.5 166.721,143 208,214.5   "
         id="polygon127" /><polygon
         fill-opacity="0.4"
         points="125.439,214.5 166.721,286 208,214.5   "
         id="polygon129" /><polygon
         fill-opacity="0.5"
         points="84.157,286 125.439,214.5 166.721,286   "
         id="polygon131" /><polygon
         fill-opacity="0.1"
         points="166.721,143 208,71.5 249.279,143   "
         id="polygon133" /></g><g
       display="inline"
       id="g135"><polygon
         fill="#FF4081"
         points="331.84,0 166.718,286 249.279,286 373.121,71.5   "
         id="polygon137" /><polygon
         fill="#FFFFFF"
         fill-opacity="0.1"
         points="290.558,71.5 331.84,0 373.121,71.5   "
         id="polygon139" /><polygon
         fill="#FFFFFF"
         fill-opacity="0"
         points="290.558,71.5 331.84,143 373.121,71.5   "
         id="polygon141" /><polygon
         fill-opacity="0.2"
         points="249.279,143 290.558,214.5 331.84,143   "
         id="polygon143" /><polygon
         fill-opacity="0.3"
         points="208,214.5 249.279,143 290.558,214.5   "
         id="polygon145" /><polygon
         fill-opacity="0.4"
         points="208,214.5 249.279,286 290.558,214.5   "
         id="polygon147" /><polygon
         fill-opacity="0.5"
         points="166.718,286 208,214.5 249.279,286   "
         id="polygon149" /><polygon
         fill-opacity="0.1"
         points="249.279,143 290.558,71.5 331.84,143   "
         id="polygon151" /></g><g
       display="inline"
       id="g153"><polygon
         fill="#FF4081"
         points="166.718,0 42.878,214.5 84.16,286 249.279,0   "
         id="polygon155" /><polygon
         fill="#FFFFFF"
         fill-opacity="0.2"
         points="166.718,0 208,71.5 249.279,0   "
         id="polygon157" /><polygon
         fill="#FFFFFF"
         fill-opacity="0.1"
         points="125.439,71.5 166.718,0 208,71.5   "
         id="polygon159" /><polygon
         fill="#FFFFFF"
         fill-opacity="0"
         points="125.439,71.5 166.718,143 208,71.5   "
         id="polygon161" /><polygon
         fill-opacity="0.2"
         points="84.16,143 125.439,214.5 166.718,143   "
         id="polygon163" /><polygon
         fill-opacity="0.3"
         points="42.878,214.5 84.16,143 125.439,214.5   "
         id="polygon165" /><polygon
         fill-opacity="0.4"
         points="42.878,214.5 84.16,286 125.439,214.5   "
         id="polygon167" /><polygon
         fill-opacity="0.1"
         points="84.16,143 125.439,71.5 166.718,143   "
         id="polygon169" /></g><rect
       y="-65"
       display="inline"
       fill="none"
       width="416"
       height="416"
       id="rect171" /><g
       display="inline"
       id="g173"><polygon
         fill="#303F9F"
         points="84.157,143 42.878,214.5 84.157,286 166.721,286   "
         id="polygon175" /><polygon
         fill="#3F51B5"
         points="331.843,0 249.279,0 331.843,143 373.121,71.5   "
         id="polygon177" /><polygon
         fill="#7986CB"
         points="373.121,71.5 249.279,286 331.843,286 414.4,143   "
         id="polygon179" /><polygon
         fill="#536DFE"
         points="84.157,0 1.597,143 42.878,214.5 166.721,0   "
         id="polygon181" /><polygon
         fill-opacity="0.5"
         points="249.279,0 290.558,71.5 331.843,0   "
         id="polygon183" /><polygon
         fill-opacity="0.5"
         points="84.157,286 125.439,214.5 166.721,286   "
         id="polygon185" /><polygon
         fill="#FFFFFF"
         fill-opacity="0.2"
         points="84.157,0 125.439,71.5 166.721,0   "
         id="polygon187" /><polygon
         fill="#FFFFFF"
         fill-opacity="0.1"
         points="42.878,71.5 84.157,0 125.439,71.5   "
         id="polygon189" /><polygon
         fill="#FFFFFF"
         fill-opacity="0"
         points="42.878,71.5 84.157,143 125.439,71.5   "
         id="polygon191" /><polygon
         fill-opacity="0.1"
         points="1.6,143 42.878,71.5 84.157,143   "
         id="polygon193" /><polygon
         fill-opacity="0.2"
         points="1.6,143 42.878,214.5 84.157,143   "
         id="polygon195" /><polygon
         fill="#FFFFFF"
         fill-opacity="0"
         points="125.439,214.5 84.157,143 42.878,214.5   "
         id="polygon197" /><polygon
         fill="#FFFFFF"
         fill-opacity="0"
         points="373.121,71.5 331.843,143 290.558,71.5   "
         id="polygon199" /><g
         id="g201"><polygon
           fill="#FFFFFF"
           fill-opacity="0.2"
           points="331.843,143 373.121,71.5 414.4,143    "
           id="polygon203" /><polygon
           fill="#FFFFFF"
           fill-opacity="0.1"
           points="331.843,143 373.121,214.5 414.4,143    "
           id="polygon205" /><polygon
           fill="#FFFFFF"
           fill-opacity="0"
           points="290.558,214.5 331.843,143 373.121,214.5    "
           id="polygon207" /><polygon
           fill-opacity="0.1"
           points="290.558,214.5 331.843,286 373.121,214.5    "
           id="polygon209" /><polygon
           fill-opacity="0.2"
           points="249.279,286 290.558,214.5 331.843,286    "
           id="polygon211" /></g><polygon
         fill-opacity="0.2"
         points="125.439,214.5 84.157,286 42.878,214.5   "
         id="polygon213" /><polygon
         fill-opacity="0.2"
         points="373.121,71.5 331.843,0 290.558,71.5   "
         id="polygon215" /></g></g><g
     display="none"
     id="g217"><g
       display="inline"
       id="g219"><polygon
         fill="#9F499B"
         points="249.279,0 84.157,286 166.721,286 331.843,0   "
         id="polygon221" /><polygon
         fill="#FFFFFF"
         fill-opacity="0.2"
         points="249.279,0 290.558,71.5 331.843,0   "
         id="polygon223" /><polygon
         fill="#FFFFFF"
         fill-opacity="0.1"
         points="208,71.5 249.279,0 290.558,71.5   "
         id="polygon225" /><polygon
         fill="#FFFFFF"
         fill-opacity="0"
         points="208,71.5 249.279,143 290.558,71.5   "
         id="polygon227" /><polygon
         fill-opacity="0.2"
         points="166.721,143 208,214.5 249.279,143   "
         id="polygon229" /><polygon
         fill-opacity="0.3"
         points="125.439,214.5 166.721,143 208,214.5   "
         id="polygon231" /><polygon
         fill-opacity="0.4"
         points="125.439,214.5 166.721,286 208,214.5   "
         id="polygon233" /><polygon
         fill-opacity="0.5"
         points="84.157,286 125.439,214.5 166.721,286   "
         id="polygon235" /><polygon
         fill-opacity="0.1"
         points="166.721,143 208,71.5 249.279,143   "
         id="polygon237" /></g><g
       display="inline"
       id="g239"><polygon
         fill="#9F499B"
         points="331.84,0 166.718,286 249.279,286 373.121,71.5   "
         id="polygon241" /><polygon
         fill="#FFFFFF"
         fill-opacity="0.1"
         points="290.558,71.5 331.84,0 373.121,71.5   "
         id="polygon243" /><polygon
         fill="#FFFFFF"
         fill-opacity="0"
         points="290.558,71.5 331.84,143 373.121,71.5   "
         id="polygon245" /><polygon
         fill-opacity="0.2"
         points="249.279,143 290.558,214.5 331.84,143   "
         id="polygon247" /><polygon
         fill-opacity="0.3"
         points="208,214.5 249.279,143 290.558,214.5   "
         id="polygon249" /><polygon
         fill-opacity="0.4"
         points="208,214.5 249.279,286 290.558,214.5   "
         id="polygon251" /><polygon
         fill-opacity="0.5"
         points="166.718,286 208,214.5 249.279,286   "
         id="polygon253" /><polygon
         fill-opacity="0.1"
         points="249.279,143 290.558,71.5 331.84,143   "
         id="polygon255" /></g><g
       display="inline"
       id="g257"><polygon
         fill="#9F499B"
         points="373.121,71.5 249.279,286 331.843,286 414.4,143   "
         id="polygon259" /><polygon
         fill-opacity="0.2"
         points="331.843,143 373.121,214.5 414.4,143   "
         id="polygon261" /><polygon
         fill-opacity="0.3"
         points="290.558,214.5 331.843,143 373.121,214.5   "
         id="polygon263" /><polygon
         fill-opacity="0.4"
         points="290.558,214.5 331.843,286 373.121,214.5   "
         id="polygon265" /><polygon
         fill-opacity="0.5"
         points="249.279,286 290.558,214.5 331.843,286   "
         id="polygon267" /><polygon
         fill-opacity="0.1"
         points="331.843,143 373.121,71.5 414.4,143   "
         id="polygon269" /></g><g
       display="inline"
       id="g271"><polygon
         fill="#9F499B"
         points="166.718,0 42.878,214.5 84.16,286 249.279,0   "
         id="polygon273" /><polygon
         fill="#FFFFFF"
         fill-opacity="0.2"
         points="166.718,0 208,71.5 249.279,0   "
         id="polygon275" /><polygon
         fill="#FFFFFF"
         fill-opacity="0.1"
         points="125.439,71.5 166.718,0 208,71.5   "
         id="polygon277" /><polygon
         fill="#FFFFFF"
         fill-opacity="0"
         points="125.439,71.5 166.718,143 208,71.5   "
         id="polygon279" /><polygon
         fill-opacity="0.2"
         points="84.16,143 125.439,214.5 166.718,143   "
         id="polygon281" /><polygon
         fill-opacity="0.3"
         points="42.878,214.5 84.16,143 125.439,214.5   "
         id="polygon283" /><polygon
         fill-opacity="0.4"
         points="42.878,214.5 84.16,286 125.439,214.5   "
         id="polygon285" /><polygon
         fill-opacity="0.1"
         points="84.16,143 125.439,71.5 166.718,143   "
         id="polygon287" /></g><g
       display="inline"
       id="g289"><polygon
         fill="#9F499B"
         points="84.157,0 1.6,143 42.878,214.5 166.721,0   "
         id="polygon291" /><polygon
         fill="#FFFFFF"
         fill-opacity="0.2"
         points="84.157,0 125.439,71.5 166.721,0   "
         id="polygon293" /><polygon
         fill="#FFFFFF"
         fill-opacity="0.1"
         points="42.878,71.5 84.157,0 125.439,71.5   "
         id="polygon295" /><polygon
         fill="#FFFFFF"
         fill-opacity="0"
         points="42.878,71.5 84.157,143 125.439,71.5   "
         id="polygon297" /><polygon
         fill-opacity="0.2"
         points="1.6,143 42.878,214.5 84.157,143   "
         id="polygon299" /><polygon
         fill-opacity="0.1"
         points="1.6,143 42.878,71.5 84.157,143   "
         id="polygon301" /></g><rect
       y="-65"
       display="inline"
       fill="none"
       width="416"
       height="416"
       id="rect303" /></g><text
     xml:space="preserve"
     style="font-size:86.1271286px;font-style:normal;font-variant:normal;font-weight:normal;font-stretch:normal;line-height:80.00000119%;letter-spacing:0px;word-spacing:0px;fill:#000000;fill-opacity:1;stroke:none;font-family:Dingbats;-inkscape-font-specification:Dingbats"
     x="49.537907"
     y="130.696"
     id="text3256"
     sodipodi:linespacing="80.000001%"><tspan
       sodipodi:role="line"
       id="tspan3258"
       x="49.537907"
       y="130.696"
       style="font-size:51.67627716px;font-style:normal;font-variant:normal;font-weight:bold;font-stretch:normal;line-height:80.00000119%;font-family:Bebas Neue;-inkscape-font-specification:Bebas Neue Bold">APP</tspan><tspan
       sodipodi:role="line"
       x="49.537907"
       y="172.03703"
       id="tspan3260"
       style="font-size:51.67627716px;font-style:normal;font-variant:normal;font-weight:bold;font-stretch:normal;line-height:80.00000119%;font-family:Bebas Neue;-inkscape-font-specification:Bebas Neue Bold">OPS</tspan></text>
<text
     xml:space="preserve"
     style="font-size:77.51441956px;font-style:normal;font-variant:normal;font-weight:normal;font-stretch:normal;line-height:125%;letter-spacing:0px;word-spacing:0px;fill:#000000;fill-opacity:1;stroke:none;font-family:Bebas Neue;-inkscape-font-specification:Bebas Neue"
     x="124.21777"
     y="160.45892"
     id="text3262"
     sodipodi:linespacing="125%"><tspan
       sodipodi:role="line"
       id="tspan3264"
       x="124.21777"
       y="160.45892">PHILIPPINES</tspan></text>
</svg>